M48
INCH,TZ
T1C0.0299
T2C0.0315
T3C0.0394
T4C0.0400
T5C0.1280
%
G90
G05
T1
X11205Y-25894
X11205Y-26894
X11205Y-27894
X12205Y-25394
X12205Y-26394
X12205Y-27394
T2
X24016Y-24016
X24016Y-25016
X24016Y-26016
X24016Y-27016
X24016Y-28016
X24016Y-29016
X27016Y-24016
X27016Y-25016
X27016Y-26016
X27016Y-27016
X27016Y-28016
X27016Y-29016
T3
X34646Y-24016
X34646Y-25016
X34646Y-26016
X34646Y-27016
X34646Y-28016
X34646Y-29016
X16142Y-24016
X16142Y-25016
X16142Y-26016
X16142Y-27016
X16142Y-28016
X16142Y-29016
T4
X42520Y-29134
X42520Y-30134
X42520Y-31134
X42520Y-32134
X42520Y-33134
X43520Y-29134
X43520Y-30134
X43520Y-31134
X43520Y-32134
X43520Y-33134
X42520Y-20016
X42520Y-21016
X42520Y-22016
X42520Y-23016
X42520Y-24016
X43520Y-20016
X43520Y-21016
X43520Y-22016
X43520Y-23016
X43520Y-24016
T5
X8705Y-24642
X8705Y-28642
T0
M30
