G04 #@! TF.GenerationSoftware,KiCad,Pcbnew,(5.1.0-0)*
G04 #@! TF.CreationDate,2020-01-05T13:41:57+00:00*
G04 #@! TF.ProjectId,tag_connect_adaptor,7461675f-636f-46e6-9e65-63745f616461,V1.0*
G04 #@! TF.SameCoordinates,Original*
G04 #@! TF.FileFunction,Copper,L2,Bot*
G04 #@! TF.FilePolarity,Positive*
%FSLAX46Y46*%
G04 Gerber Fmt 4.6, Leading zero omitted, Abs format (unit mm)*
G04 Created by KiCad (PCBNEW (5.1.0-0)) date 2020-01-05 13:41:57*
%MOMM*%
%LPD*%
G04 APERTURE LIST*
%ADD10O,1.600000X1.600000*%
%ADD11R,1.600000X1.600000*%
%ADD12R,1.520000X1.520000*%
%ADD13C,1.520000*%
%ADD14O,1.727200X1.727200*%
%ADD15R,1.727200X1.727200*%
%ADD16O,1.700000X1.700000*%
%ADD17R,1.700000X1.700000*%
%ADD18C,0.457200*%
G04 APERTURE END LIST*
D10*
X68620000Y-61000000D03*
X61000000Y-73700000D03*
X68620000Y-63540000D03*
X61000000Y-71160000D03*
X68620000Y-66080000D03*
X61000000Y-68620000D03*
X68620000Y-68620000D03*
X61000000Y-66080000D03*
X68620000Y-71160000D03*
X61000000Y-63540000D03*
X68620000Y-73700000D03*
D11*
X61000000Y-61000000D03*
D12*
X31000000Y-64500000D03*
D13*
X28460000Y-65770000D03*
X31000000Y-67040000D03*
X28460000Y-68310000D03*
X31000000Y-69580000D03*
X28460000Y-70850000D03*
D14*
X110540000Y-84160000D03*
X108000000Y-84160000D03*
X110540000Y-81620000D03*
X108000000Y-81620000D03*
X110540000Y-79080000D03*
X108000000Y-79080000D03*
X110540000Y-76540000D03*
X108000000Y-76540000D03*
X110540000Y-74000000D03*
D15*
X108000000Y-74000000D03*
D14*
X110540000Y-61000000D03*
X108000000Y-61000000D03*
X110540000Y-58460000D03*
X108000000Y-58460000D03*
X110540000Y-55920000D03*
X108000000Y-55920000D03*
X110540000Y-53380000D03*
X108000000Y-53380000D03*
X110540000Y-50840000D03*
D15*
X108000000Y-50840000D03*
D16*
X88000000Y-73700000D03*
X88000000Y-71160000D03*
X88000000Y-68620000D03*
X88000000Y-66080000D03*
X88000000Y-63540000D03*
D17*
X88000000Y-61000000D03*
D16*
X41000000Y-73700000D03*
X41000000Y-71160000D03*
X41000000Y-68620000D03*
X41000000Y-66080000D03*
X41000000Y-63540000D03*
D17*
X41000000Y-61000000D03*
D18*
X42202081Y-73700000D02*
X61000000Y-73700000D01*
X41000000Y-73700000D02*
X42202081Y-73700000D01*
X25250000Y-72500000D02*
X27750000Y-75000000D01*
X27750000Y-75000000D02*
X39700000Y-75000000D01*
X39700000Y-75000000D02*
X41000000Y-73700000D01*
X31000000Y-65000000D02*
X30750000Y-64750000D01*
X25250000Y-66500000D02*
X25250000Y-67750000D01*
X25250000Y-67750000D02*
X25250000Y-72500000D01*
X27250000Y-64500000D02*
X29782800Y-64500000D01*
X29782800Y-64500000D02*
X31000000Y-64500000D01*
X25250000Y-66500000D02*
X27250000Y-64500000D01*
X42202081Y-71160000D02*
X61000000Y-71160000D01*
X41000000Y-71160000D02*
X42202081Y-71160000D01*
X37457919Y-73500000D02*
X28000000Y-73500000D01*
X39797919Y-71160000D02*
X37457919Y-73500000D01*
X28000000Y-73500000D02*
X26750000Y-72250000D01*
X41000000Y-71160000D02*
X39797919Y-71160000D01*
X26750000Y-67480000D02*
X28460000Y-65770000D01*
X26750000Y-70000000D02*
X26750000Y-67480000D01*
X26750000Y-72250000D02*
X26750000Y-70000000D01*
X26750000Y-70000000D02*
X26750000Y-67500000D01*
X41000000Y-68620000D02*
X61000000Y-68620000D01*
X39420000Y-67040000D02*
X41000000Y-68620000D01*
X31000000Y-67040000D02*
X39420000Y-67040000D01*
X42202081Y-66080000D02*
X61000000Y-66080000D01*
X41000000Y-66080000D02*
X42202081Y-66080000D01*
X40830000Y-66250000D02*
X41000000Y-66080000D01*
X29219999Y-67550001D02*
X29219999Y-66780001D01*
X28460000Y-68310000D02*
X29219999Y-67550001D01*
X29219999Y-66780001D02*
X30250000Y-65750000D01*
X39797919Y-66080000D02*
X41000000Y-66080000D01*
X39467919Y-65750000D02*
X39797919Y-66080000D01*
X30250000Y-65750000D02*
X39467919Y-65750000D01*
X59868630Y-63540000D02*
X41000000Y-63540000D01*
X61000000Y-63540000D02*
X59868630Y-63540000D01*
X41000000Y-61000000D02*
X61000000Y-61000000D01*
X68620000Y-73700000D02*
X88000000Y-73700000D01*
X110540000Y-61000000D02*
X110540000Y-58460000D01*
X110540000Y-55920000D02*
X110540000Y-58460000D01*
X110540000Y-53380000D02*
X110540000Y-55920000D01*
X102620000Y-73700000D02*
X88000000Y-73700000D01*
X108000000Y-79080000D02*
X102620000Y-73700000D01*
X68620000Y-71160000D02*
X88000000Y-71160000D01*
X106480800Y-71160000D02*
X89202081Y-71160000D01*
X89202081Y-71160000D02*
X88000000Y-71160000D01*
X108000000Y-72679200D02*
X106480800Y-71160000D01*
X108000000Y-74000000D02*
X108000000Y-72679200D01*
X86797919Y-68620000D02*
X68620000Y-68620000D01*
X88000000Y-68620000D02*
X86797919Y-68620000D01*
X110540000Y-71290000D02*
X110540000Y-74000000D01*
X107870000Y-68620000D02*
X110540000Y-71290000D01*
X88000000Y-68620000D02*
X107870000Y-68620000D01*
X68620000Y-66080000D02*
X88000000Y-66080000D01*
X88000000Y-66080000D02*
X111080000Y-66080000D01*
X106000000Y-57750000D02*
X106710000Y-58460000D01*
X106000000Y-49500000D02*
X106000000Y-57750000D01*
X107000000Y-48500000D02*
X106000000Y-49500000D01*
X111080000Y-66080000D02*
X111420000Y-66080000D01*
X111250000Y-48500000D02*
X107000000Y-48500000D01*
X113750000Y-51000000D02*
X111250000Y-48500000D01*
X106710000Y-58460000D02*
X108000000Y-58460000D01*
X113750000Y-63750000D02*
X113750000Y-51000000D01*
X111420000Y-66080000D02*
X113750000Y-63750000D01*
X113500000Y-75000000D02*
X113500000Y-68500000D01*
X111960000Y-76540000D02*
X113500000Y-75000000D01*
X113500000Y-68500000D02*
X111080000Y-66080000D01*
X110540000Y-76540000D02*
X111960000Y-76540000D01*
X88000000Y-63540000D02*
X68620000Y-63540000D01*
X112500000Y-62250000D02*
X112500000Y-52800000D01*
X112500000Y-52800000D02*
X110540000Y-50840000D01*
X111210000Y-63540000D02*
X112500000Y-62250000D01*
X88000000Y-63540000D02*
X111210000Y-63540000D01*
X68620000Y-61000000D02*
X88000000Y-61000000D01*
X88000000Y-61000000D02*
X108000000Y-61000000D01*
X115000000Y-77160000D02*
X110540000Y-81620000D01*
X115000000Y-50250000D02*
X115000000Y-77160000D01*
X106750000Y-47000000D02*
X111750000Y-47000000D01*
X104750000Y-49000000D02*
X106750000Y-47000000D01*
X104750000Y-59500000D02*
X104750000Y-49000000D01*
X106250000Y-61000000D02*
X104750000Y-59500000D01*
X111750000Y-47000000D02*
X115000000Y-50250000D01*
X108000000Y-61000000D02*
X106250000Y-61000000D01*
M02*
