G04 #@! TF.GenerationSoftware,KiCad,Pcbnew,(5.1.0-0)*
G04 #@! TF.CreationDate,2020-01-05T14:00:01+00:00*
G04 #@! TF.ProjectId,tag_connect_adaptor,7461675f-636f-46e6-9e65-63745f616461,V1.0*
G04 #@! TF.SameCoordinates,Original*
G04 #@! TF.FileFunction,Soldermask,Bot*
G04 #@! TF.FilePolarity,Negative*
%FSLAX46Y46*%
G04 Gerber Fmt 4.6, Leading zero omitted, Abs format (unit mm)*
G04 Created by KiCad (PCBNEW (5.1.0-0)) date 2020-01-05 14:00:01*
%MOMM*%
%LPD*%
G04 APERTURE LIST*
%ADD10O,2.000000X2.000000*%
%ADD11R,2.000000X2.000000*%
%ADD12R,1.920000X1.920000*%
%ADD13C,3.650000*%
%ADD14C,1.920000*%
%ADD15O,2.127200X2.127200*%
%ADD16R,2.127200X2.127200*%
%ADD17O,2.100000X2.100000*%
%ADD18R,2.100000X2.100000*%
G04 APERTURE END LIST*
D10*
X68620000Y-61000000D03*
X61000000Y-73700000D03*
X68620000Y-63540000D03*
X61000000Y-71160000D03*
X68620000Y-66080000D03*
X61000000Y-68620000D03*
X68620000Y-68620000D03*
X61000000Y-66080000D03*
X68620000Y-71160000D03*
X61000000Y-63540000D03*
X68620000Y-73700000D03*
D11*
X61000000Y-61000000D03*
D12*
X31000000Y-64500000D03*
D13*
X22110000Y-62590000D03*
D14*
X28460000Y-65770000D03*
X31000000Y-67040000D03*
X28460000Y-68310000D03*
X31000000Y-69580000D03*
X28460000Y-70850000D03*
D13*
X22110000Y-72750000D03*
D15*
X110540000Y-84160000D03*
X108000000Y-84160000D03*
X110540000Y-81620000D03*
X108000000Y-81620000D03*
X110540000Y-79080000D03*
X108000000Y-79080000D03*
X110540000Y-76540000D03*
X108000000Y-76540000D03*
X110540000Y-74000000D03*
D16*
X108000000Y-74000000D03*
D15*
X110540000Y-61000000D03*
X108000000Y-61000000D03*
X110540000Y-58460000D03*
X108000000Y-58460000D03*
X110540000Y-55920000D03*
X108000000Y-55920000D03*
X110540000Y-53380000D03*
X108000000Y-53380000D03*
X110540000Y-50840000D03*
D16*
X108000000Y-50840000D03*
D17*
X88000000Y-73700000D03*
X88000000Y-71160000D03*
X88000000Y-68620000D03*
X88000000Y-66080000D03*
X88000000Y-63540000D03*
D18*
X88000000Y-61000000D03*
D17*
X41000000Y-73700000D03*
X41000000Y-71160000D03*
X41000000Y-68620000D03*
X41000000Y-66080000D03*
X41000000Y-63540000D03*
D18*
X41000000Y-61000000D03*
M02*
