G04 #@! TF.GenerationSoftware,KiCad,Pcbnew,(5.1.0-0)*
G04 #@! TF.CreationDate,2020-01-05T14:00:01+00:00*
G04 #@! TF.ProjectId,tag_connect_adaptor,7461675f-636f-46e6-9e65-63745f616461,V1.0*
G04 #@! TF.SameCoordinates,Original*
G04 #@! TF.FileFunction,Copper,L1,Top*
G04 #@! TF.FilePolarity,Positive*
%FSLAX46Y46*%
G04 Gerber Fmt 4.6, Leading zero omitted, Abs format (unit mm)*
G04 Created by KiCad (PCBNEW (5.1.0-0)) date 2020-01-05 14:00:01*
%MOMM*%
%LPD*%
G04 APERTURE LIST*
%ADD10O,1.600000X1.600000*%
%ADD11R,1.600000X1.600000*%
%ADD12R,1.520000X1.520000*%
%ADD13C,1.520000*%
%ADD14O,1.727200X1.727200*%
%ADD15R,1.727200X1.727200*%
%ADD16O,1.700000X1.700000*%
%ADD17R,1.700000X1.700000*%
%ADD18C,0.457200*%
G04 APERTURE END LIST*
D10*
X68620000Y-61000000D03*
X61000000Y-73700000D03*
X68620000Y-63540000D03*
X61000000Y-71160000D03*
X68620000Y-66080000D03*
X61000000Y-68620000D03*
X68620000Y-68620000D03*
X61000000Y-66080000D03*
X68620000Y-71160000D03*
X61000000Y-63540000D03*
X68620000Y-73700000D03*
D11*
X61000000Y-61000000D03*
D12*
X31000000Y-64500000D03*
D13*
X28460000Y-65770000D03*
X31000000Y-67040000D03*
X28460000Y-68310000D03*
X31000000Y-69580000D03*
X28460000Y-70850000D03*
D14*
X110540000Y-84160000D03*
X108000000Y-84160000D03*
X110540000Y-81620000D03*
X108000000Y-81620000D03*
X110540000Y-79080000D03*
X108000000Y-79080000D03*
X110540000Y-76540000D03*
X108000000Y-76540000D03*
X110540000Y-74000000D03*
D15*
X108000000Y-74000000D03*
D14*
X110540000Y-61000000D03*
X108000000Y-61000000D03*
X110540000Y-58460000D03*
X108000000Y-58460000D03*
X110540000Y-55920000D03*
X108000000Y-55920000D03*
X110540000Y-53380000D03*
X108000000Y-53380000D03*
X110540000Y-50840000D03*
D15*
X108000000Y-50840000D03*
D16*
X88000000Y-73700000D03*
X88000000Y-71160000D03*
X88000000Y-68620000D03*
X88000000Y-66080000D03*
X88000000Y-63540000D03*
D17*
X88000000Y-61000000D03*
D16*
X41000000Y-73700000D03*
X41000000Y-71160000D03*
X41000000Y-68620000D03*
X41000000Y-66080000D03*
X41000000Y-63540000D03*
D17*
X41000000Y-61000000D03*
D18*
X37040000Y-63540000D02*
X31000000Y-69580000D01*
X41000000Y-63540000D02*
X37040000Y-63540000D01*
X30750000Y-61000000D02*
X41000000Y-61000000D01*
X26750000Y-65000000D02*
X30750000Y-61000000D01*
X26750000Y-69140000D02*
X28460000Y-70850000D01*
X26750000Y-65000000D02*
X26750000Y-69140000D01*
X88000000Y-73700000D02*
X103050000Y-73700000D01*
X110540000Y-66210000D02*
X110540000Y-61000000D01*
X103050000Y-73700000D02*
X110540000Y-66210000D01*
X106000000Y-57500000D02*
X107580000Y-55920000D01*
X107580000Y-55920000D02*
X108000000Y-55920000D01*
X106000000Y-67250000D02*
X106000000Y-57500000D01*
X102090000Y-71160000D02*
X106000000Y-67250000D01*
X88000000Y-71160000D02*
X102090000Y-71160000D01*
X88000000Y-68620000D02*
X100880000Y-68620000D01*
X100880000Y-68620000D02*
X104750000Y-64750000D01*
X106679200Y-50840000D02*
X108000000Y-50840000D01*
X104750000Y-52769200D02*
X106679200Y-50840000D01*
X104750000Y-64750000D02*
X104750000Y-52769200D01*
X110540000Y-79080000D02*
X112500000Y-77120000D01*
X112500000Y-52800000D02*
X110540000Y-50840000D01*
X112500000Y-77120000D02*
X112500000Y-52800000D01*
M02*
